# xmcd
#
# Track frame offsets:
#  151
#  14955
#  32788
#  48553
#  65591
#  89498
#  99834
#  114909
#  140132
#  162309
#  167195
#  180262
#  192759
#  217693
#  238409
#
# Disc length: 3369 seconds
#
# Revision: 0
# Processed by: cddbd v1.5PL3 Copyright (c) Steve Scherf et al.
# Submitted via: AltoMP3_Maker 3.0
#
DISCID=d20d270f
DTITLE=The Fall - The Unutterable
DYEAR=1900
DGENRE=
TTITLE0=cyber insekt
TTITLE1=two librans
TTITLE2=w.b.
TTITLE3=sons or temperance
TTITLE4=dr. buck's letter
TTITLE5=hot runes
TTITLE6=way round
TTITLE7=octo realm - ketamine sun
TTITLE8=serum
TTITLE9=unutterable
TTITLE10=pumpkin soup and masked potatoes
TTITLE11=hands up billy
TTITLE12=midwatch 1953
TTITLE13=devolute
TTITLE14=das katerer
EXTD=
EXTT0=
EXTT1=
EXTT2=
EXTT3=
EXTT4=
EXTT5=
EXTT6=
EXTT7=
EXTT8=
EXTT9=
EXTT10=
EXTT11=
EXTT12=
EXTT13=
EXTT14=
PLAYORDER=
